<svg xmlns="http://www.w3.org/2000/svg" fill="#fff" viewBox="0 0 51 32">
  <path fill-rule="evenodd" d="m7.904 14.448-.237 1.22h8.506l-.485 2.468L21.02 10.7h8.224l3.323 9.888 1.91-9.888H46.97c1.22 0 2.112.216 2.677.647.11.084.208.173.296.268.707-2.075.755-4.064.025-5.83-2.811-6.8-16.077-7.74-29.63-2.099-4.621 1.924-8.68 4.364-11.91 7.014h-5.76L.637 21.32H.636c-.333 1.736-.37 3.396.25 4.896 2.81 6.801 16.076 7.74 29.63 2.1 4.61-1.92 8.659-4.353 11.885-6.997H26.61l-.313-.966h.002-5.652l-.67.965h-6.572l1.823-2.543H7.07l-.49 2.545H.637c.853-3.453 3.638-7.21 7.792-10.619h9.185l-.714 3.747H7.904Zm41.699.58a1.82 1.82 0 0 0 .684-.773c.139-.308.208-.69.208-1.145 0-.6-.184-1.098-.552-1.495-1.09 3.195-3.746 6.594-7.54 9.704h3.05c1.894 0 3.188-.427 3.882-1.28.486-.584.729-1.377.729-2.379 0-.565-.157-1.006-.47-1.323-.311-.318-.735-.55-1.27-.7l.015-.148c.475-.07.897-.223 1.264-.46ZM24.41 14.82l-1.858 2.721h2.84l-.877-2.72h-.105Zm19.354-.15a.745.745 0 0 0 .068-.073c.14-.169.209-.337.209-.506 0-.367-.243-.55-.73-.55h-3.434l-.268 1.37h3.435c.248 0 .452-.05.609-.153a.754.754 0 0 0 .11-.088Zm-.49 3.691a.71.71 0 0 0 .068-.076c.06-.08.11-.169.148-.268a.73.73 0 0 0 .06-.268c0-.396-.252-.595-.758-.595h-3.614l-.283 1.458h3.599c.275 0 .496-.053.662-.158a.742.742 0 0 0 .118-.093Z" clip-rule="evenodd"/>
</svg>
